<?xml version="1.0" encoding="utf-8"?>
<!-- Generator: Adobe Illustrator 21.1.0, SVG Export Plug-In . SVG Version: 6.00 Build 0)  -->
<svg version="1.1"
	 id="Layer_1" xmlns:cc="http://creativecommons.org/ns#" xmlns:dc="http://purl.org/dc/elements/1.1/" xmlns:inkscape="http://www.inkscape.org/namespaces/inkscape" xmlns:rdf="http://www.w3.org/1999/02/22-rdf-syntax-ns#" xmlns:sodipodi="http://sodipodi.sourceforge.net/DTD/sodipodi-0.dtd" xmlns:svg="http://www.w3.org/2000/svg"
	 xmlns="http://www.w3.org/2000/svg" xmlns:xlink="http://www.w3.org/1999/xlink" x="0px" y="0px" viewBox="0 0 304.7 185"
	 style="enable-background:new 0 0 304.7 185;" xml:space="preserve">
<style type="text/css">
	.st0{fill:#FFFFFF;}
</style>
<g id="g3767">
	<path id="path9" class="st0" d="M153.3,41.8c-2.8,0-36,28.7-36,31.5c0,2.8,4.8,9.6,7.6,9.6c2.8,0,25.5-15.4,28.3-15.4
		c2.8,0,36.8,41.1,39.7,41.1h11.7V67.6c0,0-2.3-0.2-5.1-0.2C196.7,67.4,158.5,41.8,153.3,41.8z M71.2,52v82.2h25.7V52H71.2z
		 M133.5,52c-5.7,0-25.5,15.4-28.3,15.4H102v41.1h3.2c2.8,0,8.5,7.3,8.5,7.3l19.8,19.8c0,0,3.9,3.7,9.6,3.7c5.7,0,7.4-3.7,7.4-3.7
		s2.3,3.7,8,3.7c7.1,0,9-6.5,9-6.5s1.6,1.4,6.4,1.4c7.7,0,7.8-7.1,7.8-7.1s2.8,1.9,5.7,1.9c4.5,0,7.1-4.8,7.1-7.6
		c0-5.2-2.3-9.3-3.8-11.4c-2.5-1.8-7.2-6.8-19.3-20.4c-4.2-4.7-8.5-9.5-12-13.2c-3.8-4-5.5-5.6-6.2-6.2c-2.3,1-8.3,4.6-12.5,7.1
		c-10.5,6.4-13.6,8.1-15.5,8.1c-1.5,0-3.9-0.8-6.9-4.7c-0.8-1-3.3-4.5-3.3-7.4c0-1.3,0.4-2.5,6-7.9c3-3,7.2-6.8,11.8-10.8
		c0.8-0.7,1.5-1.3,2.3-2C134.3,52.2,133.8,52,133.5,52z M209.8,52v82.2h25.7V52H209.8z M86.6,118.8c2.8,0,5.1,2.3,5.1,5.1
		c0,2.8-2.3,5.1-5.1,5.1c-2.8,0-5.1-2.3-5.1-5.1C81.4,121.1,83.7,118.8,86.6,118.8z M220.1,118.8c2.8,0,5.1,2.3,5.1,5.1
		c0,2.8-2.3,5.1-5.1,5.1c-2.8,0-5.1-2.3-5.1-5.1C214.9,121.1,217.2,118.8,220.1,118.8z"/>
</g>
</svg>
