<svg xmlns="http://www.w3.org/2000/svg" viewBox="3081.855 639.024 189.069 118.878"><defs><style>.a{fill:#fff;stroke:#fff;stroke-width:1.75px;}</style></defs><g transform="translate(2225.887 49.119)"><g transform="translate(856.909 590.876)"><path class="a" d="M155.256,116.652l.5-.134.268-.05.3-.485.485-.334.268.1.351.067.084.217-.719.251-.869.3-.485.251Zm2.792-1.037.518-.318.7-.4.9-.869.669-1.087.3-.953.2-.585.15-.1-.034.7-.2.351-.518,1.371-.769.8-1.1.869-.569.435Zm-69.212-1.209-1.137-.234-.268.1-.669-.134-.869-.635-1.07-.234-1.572-.7-.435-.8-.268-1.338-.669-.4-.134-.468.134-.134.067-.7-.268-.134-.134-.2.267-.9-.334-.468-.669-.268-.7-.9-.736-1.371-.87-.535.033-.4L77.433,101l-.167-.869-.368-.4-.033-.3-1.237-1.1-.535-.635v-.234l-.535-.435-1.4-.234-1.538-.134-.635-.468-.936.368-.736.3-.468.669-.2.769-.9,1.271-.5.5-.535-.2-.368-.234-.4-.134-.8-.468v-.134l-.368-.4-1.07-.435-1.538-1.605-.468-.97V93.808l-.669-1.338-.1-.569-.335-.2-.234-.435-1.037-.435-.267-.334-1.471-1.639L57.3,88.19l-.97-.468-.3-.9-.535-.6-.4-.1-.134-.963-.026,0,.16.982-6.047-.585-.267,2.073-3.2-.411v-.005l-5.146-.558-2.542-.5-3.478-2.073L31.376,82.3l-2.508-1.571-3.912-2.207-.1-.2.067-.3.543-.446.78-.189.135-.2-.145.2-.815.1-2.864-.279-4.08-.568-2.073-.3-.1-.368V74.028l-.067-.669L15.7,72.49l-.167-.468-.8-.869-.654.349-.568-.033-.669-.167-.067-.2.3-.134-.134-.669-.3-.435-1-.167-.8-.435-.234-.468-.535-1-.6-.635h-.6l-.8-.435-.936-.368-.869-.1-.5-.568.1-.4L6.22,63.81l.167-.4v-.5l-.335-.2-.1-.6-.3-.535-.7-1.2-.268-.635-.3-.97-.334-1.1-.669-.9-.1-.6.167-.8h.234l.435-.335.234-.736-.2-.569-.568-.1-.4-.535-.435-.769L2.709,50.6l.134-.4.134-.468.1-.5-1.17-1.3v-.435l.067-.1.067-.669-.267-.836-.468-1-.569-.936-.368-.8.2-.769.134-1.2.368-.635L1.137,39.2.9,38.463l-.335-.869L0,36.724l.167-.669.3-.869.368-.167L.9,34.784l.635-.535,1.07-2.441.033-1.538.312-.979,13.876,3.247-3.91,13.984L27.2,68.071l.395.168-.38-.167L12.93,46.518l3.928-13.98L2.967,29.29l-.08-2.5.167-1.772.4-.6,1.672-2.608L6.465,19,7.5,16.09l.669-1.337.669-2.073.468-1.338,1.2-.426.484.1,0-.006-.471-.095-.735.255L9.314,10.5l.067-.6.569-.067L10.284,9l-.535-.234.034-.769.9-.134-.568-.568-.3-1.472.134-.6V3.578l-.368-.669L10.05.97l.435.1.5.6.568.535.669.4.936.435.635.134.6.3.7.2.468-.033v-.5l.268-.234.435-.268.067.234.067.368-.468.1-.067.435.368.3.234.5.134.4.3-.033.033-.267-.2-.268-.1-.669.167-.368-.134-.3V2.608l.368-.736L16.8,1.338l-.5-1L16.37.167,16.6,0l.9.3,2.006.568,1.772.4,4.147,1.17,4.748,1.17,3.149.663-1.9,8.878,1.906-8.86,2.8.523-.816,3.956.83-3.955,6.769,1.434,3.812.7,6.688,1.1,6.053.836,6.053.736,6.345.581-.924,9.054.942-9.045,4.746.441,5.484.268,3.846.134,5.925.117.379,1.131-.129.791-.006,2.16.363,1.074.22.389-.238-.447-.331-1.04V13.108l.142-.8L91.9,11.177l6.233.007L98.2,9.479l.134-.033.468.1.4.167.167,1.137.3,1.271.334.335h1l.067.3,1.3.067v.435h1l.067-.268.234-.234.468-.134.268.2h.6l.8.535,1.1.5.5.1.1-.2.3-.1.1.6.535.268.1-.1.267.033V14.9l.535.2h.635l.335-.167.669-.669.535-.1.167.368.1.268h.2l.2-.167,1.839-.067.368.635h.134l.148-.224.918-.077-.127.472-.815.38-1.913.84-.988.415-.635.535-.5.736-.468.8-.368.167-.936,1.037-.268.033-.9.57-.062.08.2.179.6.1.6-.134,1.538-.669.6-.4.435-.167.4.3-.234.234-.4.635-.134.4.2.134.368-.2.234-.033.276-.061.134.234.248.033.155-.115.506.69-.5-.695.148-.12.568-.167.736-.468v-.2l.134-.134,1.237-.2.5-.4.9-.435.033-.267.4-.6.368-.167.267-.368.468-.468.9-.5.97-.1.234.234-.067.2-.769.2-.3.635-.468.167-.1.5-.5.669-.067.535.167.1.2-.234.736-.6.268.268h.468l.669.2.3.234.3.635.569.568.8-.033.3-.2.334.268.335.1.268-.167h.234l.334-.2.836-.736.7-.234,1.371-.067.936-.4.535-.268.3.033v1.17l.1.067.6.167.4-.1,1.271-.334.234-.234.3.1v1.438l.669.635.268.134.268.2-.268.067-.167-.067-.769-.1-.435.134-.468-.033-.669.3h-.368l-1.2-.268-1.07.033-.4.535-1.438.134-.5.167-.234.635-.268.234-.1-.034-.3-.334-.936.5h-.134l-.234-.334-.167.033-.4.9-.2.836-.658,1.448-.006-.005-.2.47-.368.335-.435.97-.268.5.033.368.3.067.234-.4.4-.167.167-.468.4-.368.568-.836.869-1.3.167-.1.067.2-.033.468-.6,1.4-.568,1.17.093.863-.134.535.167.268L123,31.81l-.4.5-.1.368.134.736.134.7-.3.535-.167.6-.2.635.234.5.134,1.271.244.936.014.653-.427.025.415-.024.048,1.135.3.535.334.368.268.769.167.535.056.191.191,2.408.268,3.106.221,3.264.171,1.485-.144,1.09.02.692.415.733.077,1.087-.462.827-.011.025.51-.828-.1-1.2-.368-.569-.067-.669.167-1.137-.1-1.438-.268-3.311-.267-3.177-.2-2.424.635.184.3.2.234-.067.435-.4.57-.326.664-.628.067-.568.5-1.07.2-1.237.167-.97-.3-1-.6-1.338-.736-1.237.067-.569.067-.167.167-.5-.1-.234-.134-.97.334-.836.234-1.271-.167-.5V29l.468-.1.134-.535L127,28.2l.034-.2.368-.4.569-.234.2-.869.4-.167.167.167-.134.5-.268.5v.869l.134.033.736-.435-.067-1.137-.067-.334.067-.435.3-.368.535-.067.535-.167-.1-.167-.435-.1-.2-.067-.067-.736.6-.468.6-.368.635.468.2.1.134-.134h.568l1.137.7.936.3h.535l.267.535.5.468-.033.335-.335-.067-.167.167.167.435.268.167.334.468.067,2.073-.5.335-.134.535-.167.7-.7.268s-.067.9-.1,1.037.5.435.5.435l.3.134.234-.134.569-.769.4-1.037.8-.368.334-.234.535.368.5.669.468,1.873.669,1.705.067,1.973-.4.2-.167-.033-.034-.134-.217-.125-.318.627-.046.736-.226.071-.33.33.046,1.045-.414.36-.435.769-.032.288h0l1.012-.146.493.279.535.3,1.07-.134.7.635.435-.033,1.137-.535.6-.1.669-.167.836-.8.7-.769.8-.468,1.26-.839.6,4.005.473,1.871-.373.362-.049.165.18-.27.265-.267-.486-1.9-.6-3.959.869-.622.267-.1,1.105-1.044v0l.3-.233.268-.234.2-.334.368-.234.4-.368.1-.334.435-.568.234-.2-.033-.2-.268-.635-.368-.033-.4-1.271.6-.368.9-.3.836-.267.669-.1,1.3-.033.4.268.335.033.435-.268.535-.234,1.07-.1.435-.368.368-.669.334-.4h.435l.4-.234.033-.468-.3-.435-.067-.3.234-.435v-.3h-.368l-.368-.167-.167-.234-.033-.535,1.2-1.137.134-.167.3-.6.6-.936.569-.769.435-.5.5-.378.637-.258,1.137-.268.669.033.936-.3,1.565-.428v0L173.176,19l0-.031.01-1.041.3-.4.2.2.134.1.134-.334h.185l0,.008.288-.024.313.085v-.535l.271-.93.535-.97.3-.836-.4-.5V12.558l.167-.2.167-.568-.033-.3-.034-1,.368-1,.6-1.839.435-.869h.268l.268.033v.234l.268.468.568.134.167-.167v-.2l.836-.6.368-.368.3.033,1.237.5.4.2,1.873,6.186h1.237l.167.4.034,1,.6.468h.167l.033-.1-.1-.234.568-.033.4.435.468.769v.4l-.435.97-.4.134-.7.635-1,1.137h-.268c-.134,0-.2-.435-.2-.435l-.368.033-.2.3-.5.3-.2.3.334.3-.1.134-.1.568-.4-.033V20.35l-.067-.268-.3.067-.368-.669-.435.268.268.3.067.234-.167.268.067.635.033.334-.334.535-.6.1-.067.6-1.1.635-.268.1-.335-.3-.635.736.2.669-.3.268-.033.9-.232,1.295-.022-.01-.2.612-.177.219.041-.018.6.913-.5,1.07-.067.3.4.535.234-.167h.368l.468.535.8,1.237.736.1.468-.2.368-.368-.167-.569L181,30.918l-.3.167-.2-.268.1-.1.435-.033.368.167.4.5.2.6.067.5-.869.3-.8.4-.8.936-.4.3v-.2l.5-.3.1-.368-.167-.635-.6.3-.167.3.1.468-.428.207-.568-.936-.7-.9-.428-.375-.009,0,.452.4.684.894.556.911-.62.336-.268-.033-.234.368-.5.4-.6.2,0-.006-1.611.657-1.07.234-.569.3-.167-.134-.4.435-.736.669-.884.808L170.463,38h0l.38.412.165.347-.4.368.067.267.268-.067.3-.268.468-.535.234-.134.334.134.468.033,1.639-.8.6-.568.268-.3.869.334-.7.736-.8.6-1.471,1.1-.535.2-1.2.4-.836.234-.243-.11,0-.042-.012.206-.435.4-.234.2.1.1.568-.067.234-.167.334.7.033,1.939.134.234-.234,1.137-.635,1.338-.568.836-.167,1-.435.5h-.167l-.067-.569.167-.2-.034-.3-.836-.134-1-.468-.669-.6-.109-.224.082.2.651.594.4.736.368.97.736.5.2-.1.467,1.525h0l.09,1.015-.415.832-.961.4.9-.357-.159.666-.6.782-.087.948.1.7-.378,1.03-.448.4-.3-.96.092-1.127.328-.865.159-.641-.03-.4h0l-.268-.106-.67-.865-.334.167-.8-.1-.535-.7.067-.7.335-.268-.335-.368-.234.4-.1.033-.067-.736.435-.2-.1-1.137-.368-.067-.067-.234.268-.769.3-.335-.1-.2-.4.334-.4.268a2.11,2.11,0,0,0-.1.435c0,.134-.3.468-.3.468l.268.268.034.435-.268,1.1.435,1.137.5.435v.368l.3.435-.2.435-.435-.067-.635-.2-.277,0,.279,0,.635.2.4.064.148.639.66.083.179.248-.091.97.284.228-.1.4.255.163-.046.286-.557-.02.019.334.472.319.025.292.367.369.1.522-.528.286.325.309,1.2-.349.74,1.234h.006l.432,1.017.736,1.338.5.5.134.468-.5.033.167.134-.067.869-.535.268-.134.435-.268.6-.769.335-.5-.067-.3-.033-.334-.267.067.267v.2h.4l.167.268-.4,1.3h.869l.134.335.468-.468.268-.1-.4.736-.635,1h-.268l-.234-.1-.568.134-1.07.5-1.338,1.1-.7.97-.4,1.338-.1.5-.97.1-1.093.268,0,0-1.121,1.129-.535,1.271-.1,1.3-.334.167-.234.568-.5.134-.435.736-.568.569-.468.7-.334.167-.736.7-.6.033.2.669-1.037,1.137-.435.268-.367.2-.533-.266.014.046.535.267.4-.146.106.279-.69,1.292.1.535-.3.869-.468,2.073.159,1.294.457,1.476.772,2.015,1.1,1.939.769,1.3,1,1.137.836.769.334.6-.234.268-.167.268.6,1.538.6.6.535,1.1.736,1.2.936,1.705.268,1.572.1,2.474.134.368-.067.7-.5.267.067.4-.134.4.067.5.1.4-.568.669-.635.3-.8.033-.3.334-.5.2-.268-.1-.234-.2-.067-.6-.167-.7-.7-1.07-.736-.468-.8-.067-.167.268-.635-.9-.134-.736-.535-.836-.368-.234-.334.435-.368-.067-.435-1.037-.6-.8-.6-1.1L150.49,105l-.736-.769.434-.5.669-1.137-.033-.335-.936-.2-.334.134.067.134.535.2-.3.936-.167.1-.368-.836-.268-1-.067-.569.3-.97V98.21l-.635-.769-.268-.635-1.07-.267-.4-.134-.334-.535-.7-.335-.234-.7-.568-.2-.5-.769-.869-.3-.6-.3h-.535l-.836.167-.033.4.167.2-.1.234-.635-.033-.769.736-.736.4h-.8l-.669.268-.067-.569-.334-.4-.6-.234-.334-.3-1.672-.8-1.572-.368-.9.134-1.237.1-1.237.435-.593.1h0l-1.146.532-.569-.067.569-.4v-.2l-.635-1.237-.468-.134-.3.9-.268.569-.134-.033h-.561l-.008.038h-1.07l-.3-.167-.435-.067-1.4.4L122.5,93.7l-.535.869-.228.161-.232-.515-.236-.8-.237-.221.219.211.241.823.22.5-.394.713-.368.4.2.368.635.134.134-.535.4-.435.3-.033.067.569.268.4-.368.635h-.669v.1l.368.2-.034.134-.468-.067-.234.569.669.468,1.2.167.7.568h.268v.3l-.468.635-.234-.2h-.6l-.2-.3-.836-.4s-.7-.134-.869-.134-.134-.635-.134-.635l-.134-.167-.234.268-.435.1.033.3-.167.335.435.067-.167.1-.468.7-.7.268-.134-.134.468-.167-.167-.6-.267-.2-.368.3-.535.134-.2.5-.736.268-1.739-.736-.334-.335.268-.167.167-.335-.368-.368-.936-.067-.067-.468-.3-.5-.669-.134-.368.2-.368-.3s-.5.167-.635.2-.167.3-.167.3l.568.334.535-.1.669.234-.167.435-.669-.2-.669-.234-.769.3-1.337-.234-2.14-.736-2.506-.043-.949.308v.015l-1.172.328-2.04.936-.2.4-.535.4-.435.3-.268.167-1.17,1.1-.568.435-1.1.669-1.17.5-1.3.7-.368.3-1.2.736-.7.134-.8,1.137-.836.067-.2.4.468.4-.3,1.137-.268.936-.234.8-.167.936.167.5.368,1.438.2,1.271.368.568-.2.3-.635.4Zm15.423-17.338.026.308-.011-.341Zm.577-2.71,0-.018-.211-.272Zm.28-1.476-.148.258.157-.266.109-1.345Zm15.664-1.271-.111.6.126-.609-.142-.189-.378.047-1.564.172h.017l1.916-.208Zm-7.23.118,2.886-.053-2.877.044-.067-.194Zm-8.478-1.394.041.65.152.16,0-.022-.142-.142-.047-.662-.435-.549Zm33.969.207.3.3h.02l-.322-.31-.462-.693,0-.072-.049,0Zm10.871.075-.008-.136h-.012ZM113.6,89.486l0,.015.437-.8Zm36.76-.29.085-.094.445.036-.446-.062Zm-47.183-4.662.142,1.972.145.746,0,0-.135-.764-.142-1.939-.005-1.721ZM68.628,86.189l.462-4.026.8-11.492.331-3.878.207,0-.211-.017-.36,4.011-.8,11.558-.455,3.839Zm46.837-.368-.26.141.04.169-.031-.171.256-.136.09-.4,0,0Zm-58.849-.53,6.006.567,1.4.077-1.053-.065-6.241-.61-1.588-.1Zm58.443-.714v-.023L114.9,84.2Zm-11.877-2.05v.044h.014l-.093-.9Zm11.475-.063.041-.077h-.043ZM151.431,81.1l.535.134.468.435.254.7,0-.01-.268-.736-.468-.435-.534-.133Zm-49.263.079.334-.146-.01,0Zm-.538-.077-.222-.189-.031-.018Zm-1.162-.543.591.168.293.155-.267-.154-.645-.184Zm14.038.049.116.189-.106-.184.316-.307h0Zm-19.515-.019.22-.117-.226.113-.036-.011ZM89.667,79.6l.461.007.193.5,1.309.437.329-.159.185-.52-.233.525-.284.142-1.3-.43-.189-.52h-.515Zm5.7.79.007,0,.145-.511h-.012Zm-1.773-.282.125.042-.1-.039-.149-.025Zm6.148.027,0,0-.2-.241Zm51.353-.045-.014-.042-.569-1.237-.01,0Zm-54.279-.022.008-.006-.153-.068Zm.983-.095h.839l.314-.42.349.076-.343-.086-.331.426H97.8Zm16.708-.193,0,0,.093-.338.037-.152Zm-16.884-.139.064.12-.053-.123h-.076Zm-9.337.093.005,0v-.064Zm.8-.134.144-.127.37.107-.359-.135Zm-.791-.28V79.3h-.054ZM86.427,78.9l.439-.429.462.076-.456-.091-.47.423Zm-2.762-.806.507.012-.505-.028Zm65.522-.109.013.012-.261-.522-.013-.012Zm-65.683-.8.236.084-.036.394.046-.395-.567-.284V77Zm-1.34.209.156-.073-.13.043-.281-.156ZM115.31,77.2l.047.157-.044-.162Zm-32.978.113.077-.036.076-.371-.012-.016Zm.39-.039.437.009v-.015h-.4l-.245-.327Zm-56.175-.332.006-.008.118-.567-.017,0Zm121.118-.617-.1-.125h0ZM80.855,76.3h0l0-.012ZM25.815,76.1l.054.071-.049-.085.095-.355-.006-.034Zm91.813-2.4-.5.26-.591,1.158.071.378.024.309-.426.212.444-.213-.046-.347-.059-.348.595-1.152.485-.255.03-.178h-.011ZM25.881,75.556l.015.057-.009-.056.29-.1Zm.4-.13.032-.011.591-.567v0Zm119.7-.087.013.005-.094-.281-.019-.022Zm-.7-1.2.1.3.019.022-.1-.3-.7-1.07-.7.033-.836-.5-.268-.268-.067-.368.057-.136-.069.154.067.368.293.268.777.487.728-.021ZM80.9,72.119,80.873,73.9l.04-1.554L81.4,67.3h-.014Zm-53.589.986-.286.7v.01l.293-.721Zm98.08-.042.007-.28h-.015Zm-97.678-.406-.275.307.291-.291.474-.237Zm101.9-.279,4.941-.4v0l3.059-.364ZM28.554,72.22l.217-.186v-.026Zm127.709-2.172,2.608,1.572.311.25-.315-.26-2.608-1.572-.6-.167-2.608.3-.317.056.322-.046,2.608-.3Zm-12.915,1.326-.205.1.212-.091-.1-.466-.057.024.023,0Zm-4.124-1-.375.308-.081.791h.009l.1-.814.349-.286ZM27.588,69.009l.555,1,.239,1.21.134.14-.1-.128-.26-1.206-.568-1.017.118-.686.205-.3-.189.272-.019-.008Zm118.711.478-1.873.936-.69.29.705-.286,1.873-.943Zm-5.5-.6-.848.56-.139.769-.209.055.214-.05.134-.769.869-.568.607-.228Zm-23.3.648.823-.148,0,.012.036-.03.351-1.134.281-1.407-.163.2-.135,1.212-.355,1.136-.806.142-.555-.047Zm30.3-.215-.767.085.841-.087Zm1.507-.044,1.912-.05-.008-.006Zm-32.164-.734-.3.258.326-.254.114-.55Zm25.332-.7-.577.5.589-.5.479-.231Zm-41.7-.15,16.1-.516-.013-.021-2.411.048-4.3.166-4.8.142-4.573.177Zm42.724-.9-.085.5.108-.512.613-.613Zm-73.244.019,3.513.168-3.227-.182v.016l-.081-.007Zm50.413-.007,1.438-.134.855-.028-.855.015-1.438.134-1.615-.012Zm-1.413-.3-.106.129.117-.127.178-.11Zm4.544.112h0l.046-.848.8.006.956-.106,3.26-.368,5.931-.573-5.932.56-3.26.368-.956.106-.8-.006Zm20.827-.436a1.268,1.268,0,0,1,.227.026,1.154,1.154,0,0,0-.224-.028.158.158,0,0,1-.148-.114A.153.153,0,0,0,144.63,66.175ZM28.1,66.085l0,.077,0-.1Zm91.712-.524-.007.445.035-.486.118-.236Zm24.538.4-.011.01.125-.031v0Zm-65.155-.89,9.316.426,9.6.095,2.464-.065-.058-6.625.035,6.622-2.61.042L88.4,65.472l-9.217-.426-4.66-.238ZM145.5,65.5v0l.433-.133.468.067.335-.736.6-.535,0-.014-.611.546-.331.731-.471-.061Zm-25.486-.346.008-.016-.332-.525.149-.353-.166.38ZM28.171,64.89l-.012.191.022-.163.006-.38Zm91.221-.052.156-.116-.167.1Zm-.412-.461.4.445L119,64.4l-.055-.142Zm-47.169.232-1.095-.1v.016Zm50.254-.353.141-.04-.149.037Zm-1.745-.4-.458.361,0,.007.467-.367.155-.048Zm1.976.337h0l.014-.2Zm-.966-.2.419.152-.449-.17-.221-.1Zm26.1-.236-.077.355.086-.374.012-.241Zm-7.052.321.758-.18-.09.013ZM30.521,64.042l.334-.512-.009,0-.325.5h-.248ZM30,64.018h.022l-.147-.273Zm115-.642-1.734.2-1.346.2,3.088-.4Zm-1.832-.63-.906.448-.733.44,1.644-.881v-.161ZM31.031,63.5l.178,0,.006-.033Zm87.683-.1,0,.011.144-.469v0Zm-89.54-.012h.006l-.156-.224-.03,0Zm117.343-.049-1.226.037,1.221-.005.538-.419.428.04v0l.364,0-.791-.044Zm-24-.875-.38.279-.005.041,0-.026.4-.3Zm.1-.027.455-.114.063-.025Zm.659-.523.123.278.007,0-.143-.314ZM74.29,61.5,74.9,51.425l4.568.14,8.334.174,9.164.2h1.025l-.078-.069.05.058H96.916l-8.995-.194-8.437-.184-4.6-.162.141-2.81ZM31.6,61.436l.249-1.32h0L33.8,49.426Zm91.811-.225.006,0s.068-.195.134-.384ZM145.19,60l-.74.826-.031.034,1.242-1.354Zm2.076.625.355-.159-.358.155-.191-.045Zm-23.615-.741-.006.651c.01-.03.017-.054.021-.068l-.015.008.014-.591.092-.856Zm24.126.513.016-.007.456-.268,0,0Zm1,0,.128-.047a.5.5,0,0,1-.152.029.208.208,0,0,1-.039-.015Zm-22.162-.216.316.18.324-.633-.007,0-.321.622-.3-.167-.192-.211Zm-2.366-.026-.273.145.315-.153Zm25.315-.059s-.108.047-.246.1l.268-.1.374-.908Zm15.224-.04.061-.013,2.312-.5.182-.042Zm-18.646-.013-.342-.472-.621-.393.482.326,0,0Zm-17.682-.077h0l-.014-.031Zm-12.8-.073.021.017-.047-.08Zm12.289-.42-.029-.02h0Zm1.284-.5-.555.311V59.3l.638-.357.436-.218,0,0Zm21.278.293.267-.2-.272.2Zm-.2-.041-.339-.076,0,.005Zm-20.239-.17.657-.009h-.657l-.13-.133Zm14.7-.649.322.647-.306-.648-.852-.69Zm-21.015.513,0,.023.467-.6,0-.007Zm27.675,0-.322-.1-.008.006Zm-20.554-.194v0l-.005-.033Zm20.936-.247.238-.31,0-.025ZM115.9,57.126l-.386,1.135.367-.955.142-.757-.029-.014Zm14.923,1.116h0l.012-.019Zm21.11-.743.186.24-.031.286.048-.285-.195-.258Zm-8.17-.274.111.329-.094-.33-.28-.158Zm8.22.164.161-.3.473-1.1Zm-8.923-.811.167.325.01.006-.16-.321-.031-.661Zm-10.589-.857-.074.606.089-.607.605-.094.041-.018Zm-16.914.6-.1-.051-.862-.062Zm-1.6-.692.034-.636-.051-.034Zm-14.2-.224.241.167-.264-.192Zm34.108-.115-.6.261.605-.263.067-.047Zm9.17.119,0,.1.441-.016.275-.115-.148.054-.452.017-.492-.332ZM99.147,54.74l.438.474-.4-.477-.374-.623Zm39.018.426.279-.025-.292.011Zm.415-.07.458-.225.215.023-.228-.034Zm1.541-.106.092.008-.113-.01Zm13.118-.488-.14.366.136-.318.029-.266Zm-11.172.253h0l-.025-.108Zm-7.724-.12,0-.028-.119-.152Zm7.163-.306-.485.268,0,0,.517-.281Zm-28.7-.112.455.284-.4-.268-.506-.522ZM144.48,52.61l-.212.85-.02.968.033-1.015.2-.8.014-.007Zm-10.413.028.124,1.194-.016.095.043-.23H134.2l-.117-1-.535-4.849-.329-2.539Zm-35.232.937-.036.244.052-.258Zm55.233.187.814-.062,0-.01-.812.07-.091-.1Zm-18.99-.1h.008l.476-.154.131.056-.136-.061Zm-35.865-.445-.3.288.321-.281v-.615l0,0Zm54.252.1.134-.057-.008-.009Zm-8.348-.243.015-.008-.11-.347,0,0Zm.463-.521-.091.3-.266.161.262-.143.1-.334-.176-.276Zm16.181-.1.466.119-.456-.122-.084-.232ZM98.469,52.39l.152,0-.148-.016-.2-.182Zm46.88-.227,0,0v-.081Zm9.945-.037v0l.251-.05Zm6.323-.476.02.381v-.378l.243-.353Zm-5.774.369.016,0,.111-.289ZM97.4,51.28l.316.366-.519-.692-.072-.111Zm48.565-.5-.287.44.344-.515.207-.233-.047-.011Zm10.647.174-.2.194.2-.183.21-.431Zm11.321-.066-.16.005.19,0,.806-.161ZM146.722,50.5l.468-.334.636-.7.415-.711-.522.768-.635.7-.381.272Zm19.794-1.023.247.926-.2-.79-.435-2.006,0-.01Zm-4.365.876.011-.057-.273-.268Zm-51.311-.134v0l.147-.4.355-.272v0l-.321.231L111,49.755Zm42.559-.095.441-.534.17-.231-.13.151-.435.5-.056.056Zm-56.689-.46-.018.316.031-.306-.106-.212Zm60.47.125,0-.006.018-1.048,1.043.406-.165-.072-.878-.336Zm4.379-.027.278-.389,0,0Zm-1.384-.343.7.157-.7-.164Zm-48.5-.821-.336.229-.058.28.056.426-.045-.41.047-.284.331-.237.375-.094Zm-1.193.509.3.363-.271-.343-.261-.507-13.6.52-.036.007.321-.016,13.313-.5Zm48.823.325a3.153,3.153,0,0,0,.076-.555Zm.852-.62.006.26v-.264l-.241-.1Zm-11.867-.149v0l.01-.167Zm1.123-.281.958-.155.769-.111-1.007.127-.676.132-.739-3.984-.025-.1Zm-36.849-1.11-.365.318-.159.34.009.208v-.2l.142-.331.378-.331.023-.412Zm40.382.6,7.742-1.561,3.077-.584.546-.118-.784.153-3.077.584-7.505,1.517ZM158,47.436l0,0-.014-.009Zm7.582-1.133.45,1.082-.378-.946-.224-.656Zm-69.6.573,0,.077,0-.082-.072-.185ZM148.224,44.9l.2.6.034,1.015.006-.058v-.97l-.228-.618Zm-35.606,1.533v0l-.111-.1Zm-.526-.626.031.058-.025-.051.095-.285Zm53.642-.763-.435.334-.027.024.028-.006h0l.443-.354Zm.615.157,0,.011.005-.026Zm0-.018.1-.331.29-.166-.3.161-.271.056-.227.074.149-.043.336-.082Zm-52.464-.675-.355.118-1.154.385-.033.091.034-.091,1.088-.284.378-.142.473-.378.006-.021ZM95.017,44.16l.257.385-.23-.369-.121-.632Zm72.491-.554-.334.468-.172.353.218-.411.3-.422Zm-34.394.627-.2-2.253.049-.009-.019-.33-1.506.2-3.946.417,4.231-.436,1.153-.11ZM45.473,40.844l-.478,2.725.048.006.777-4.883-.045-.009Zm49.412,2.5-.031-.161-.482-1.325Zm19.945-1.605.142.495-.14.709-.185.378.194-.389.142-.71-.142-.473-.263-.232Zm53.047,1.518.294-.265v-.013ZM70.035,28.063,68.814,42.375l.5-5.089h0l.976-11.679-.25,2.454-8.95-1.126Zm43.906,12.6.018.067-.017-.066-.039-.049Zm-20-.006.138.008-.032-.151-.254-.4.239.4.01.12-.276.025Zm-.567-.426.189.426h.008l-.2-.426Zm72.592.336,0,.014.458-.229v-.017Zm-52.685-.277.1.026-.1-.03Zm56.479-2.008.581.362.024.407-.119.568.073.656-.043-.647.1-.569-.033-.435-.582-.351-.5-.107Zm-76.456,1.7-.022-.083h0Zm.129-.477.264.442-.261-.448Zm-.769.06.512.275-.5-.28-.514-.2Zm20.562.144.008.081.093-.005-.222-.228Zm-.773-.276.633.1-.018-.019-.615-.095-.172-.078Zm-23.4-.157-.046-.044-.039-.024Zm77.182-.051v.011l.4-.627V38.6Zm-76.131-.144-.485.155.457-.144.349-.041Zm1.419-.074-.066-.053h0Zm2.3-.476-.13.328.148-.367.153-.639Zm-5.871.041.349.216-.354-.222Zm23.463-.192.026.039-.024-.036L111.4,38.2Zm-23.644-.009-.242-.276-2.463.087.238.011,2.223-.095Zm-7.386-.414,4.475.215-4.728-.259-2.358-.123Zm88.326.077h0ZM149.979,38l1.839-.3,8.9-1.806,3.547-.823-3.809.861-8.9,1.806L150,37.99l-.125-1.095Zm16.659-.043v.012l.061-.072Zm4.059-.423-.167.335.181-.322-.013-.676Zm-3.059.118-.381-.182-.065-.056-.023.023Zm-95.1-.165.175.01-.285-.017Zm94.473-.217.126.093-.109-.093-.152-.01Zm-1-.441.316.267-.305-.262-.2-.748Zm-72.455.056.247.184-.245-.184-.01-.057Zm18.239.13h0l-.047-.284-.005,0Zm-.518-.614.176.122-.176-.124Zm-17.724-.33.1-.272H94l17.1-.263.021.1-.144-1.17.11,1.059L94.3,35.763v.028l-.66,0ZM170.4,34.355l.279,1.395V35.69l-.3-1.5L170.315,34Zm-5.433,1.228h0l-.5-.559h-.005ZM93.017,26.366l.013.333.2.347.842.689.128.779.069,6.242.014.55-.066-6.922-.095-.615-.851-.709-.237-.378V26.35l.009-.007Zm17.927,7.821v-.012l-.426-.568-.008,0Zm59.268-.679,4.345-.971.975-.19,0-.009,1.1-.324-1.146.329-1.053.217-4.222.938Zm-61.97-1.932.8,1.173.008,0-.8-1.18-.144-.019Zm-1.779-.752h.689l.2.327-.19-.333h-.7Zm63.7-.581,0,.089.761-.158-.744.12.023-.383Zm1.574-.227.707-.135.14-.037Zm.7-.334,0,0,.07-.257Zm-.067-1.563.2.268-.033.94,0-.007.033-.936-.2-.268.007-.224Zm-124.787-.51-.2,1.292.49-3.078-.3,1.743-.127-.074Zm129.36.612-.3.455.316-.461ZM105.969,26.7l.141.667-.384.67.015.328v-.336l.378-.662-.142-.662-.52-.426-.079-.04Zm-64.2.628.513-.486.589.01.085.039-.125-.063h-.568l-.473.473-.216-.172Zm4.514-.737-.095.615-.36.06.4-.043.1-.628.463-.121ZM27.876,24.9l.265.346.52.009.127.241L28.3,26.661l-.116.469.116-.359.52-1.23-.26-.473-.52.024-.16-.206Zm93.762,1.954.347.258-.063-.056-.284-.213-.4-2.128-.007,0Zm-80.509-1.63.348.448-.148.845.221.581,0,0-.141-.7.095-.709-.378-.473-.128-.1Zm2.663,1.821.258-.063.4-.017h-.439Zm128.749-1.994-.126,1.915v.018l.156-1.781V24.29Zm5.025,1.74.013,0-.1-.611-.012,0ZM47.181,26.732h0l0,0ZM168.9,26.587l.013.006.159-.573L169.065,26Zm-75.44-.567h0l.284-.284,0-.028Zm81.629-5.513,1.5,4.849.067.569.013,0-.064-.544-1.5-4.849-.52-1.621ZM81.752,24.824l12.036.331,0-.063-12-.286L71.673,24.19Zm25.135-.6L105.836,25l0,.01,0-.008,1.088-.8.116-.162ZM39.752,21.967l.567,2.6.512.415-.507-.429-.568-2.6.019-.434ZM27.971,24.6l-.062.2.061-.154.017-.15Zm92.525-.165.414.157-.406-.157-.136-.151Zm-27.553-5.19.391,2.694.347,1.41.078,1.063L93.7,23.324l-.378-1.513-.379-2.79-.089-1.909ZM29.612,22.329l-.237.237L29,22.793l-.922,1.135-.007.045.9-1.1.378-.095.236-.236.041-.227Zm84.041.168,1.638.24,1.7.448.141.05-.148-.054-1.7-.449-1.627-.236Zm58.682.568,0,0,0,0v-.191ZM107.2,21.547l-.047.66.007.6v-.692l.047-.568.269-.36Zm66.439-.833v.836l-.767,1.046-.249.11.249-.109.769-1.047v-.836l-.162-.23ZM31.494,19.62l-.738.8-.837,1.173-.072.172.038-.029.8-1.206.8-.9.005-.09ZM37.6,20.9l.544.687.165-.009h-.159l-.52-.662v-.472Zm1.734.059.013-.008.136-.22-.01,0ZM38.308,16.1l.691.236.076.434-1.442,3.594v.017l1.462-3.632L39,16.327l-.7-.232Zm-10.431.585,2.62.747.369.96.673.508,0-.053-.709-.544-.316-.9-.006.027L27.936,16.7l-.609-.14ZM19.411,16l.273.035-.291-.047Zm2.152-.024,2.134-.016-2.119,0-.094-.278-.015.006Zm-2.327-.093-.305-.225-.272.136-.9-.027.9.044.26-.142ZM38.2,15.861l0-.007-.04-.047Zm-21.557-.649-.4-.161-.105.021.109-.015Zm-1.864-.061.01-.009-1.235-.059Zm21.257-2.439.649.26.793,1.977.121.153-.915-2.132-.66-.283ZM14.841,15.091l.338-.318.9.307h0l-.9-.313Zm-2.428-1.04.014-.017.016-1.009Zm23.213-2.3.361.852-.346-.864.089-.3Zm-24.491-.219.76.105-.762-.112ZM35.217,9.24l.055.116-.054-.119Zm55.659,103.6-.569-1.488-.117-1.455.318-1.705.685-1.421.719-1.12.652-.736.134.05-.986,1.371-.9,1.354-.418,1.371-.067,1.07.184,1.271.535,1.488.1,1.07.033.3-.184.05ZM11.62,75.18a1.837,1.837,0,0,1-.15-.385v-.451l.1-.017.368.652.251.4-.3.05Zm.786-1.956-.167-.2-.368-.485v-.251l.217-.033.552.418.2.368-.117.3ZM8.092,69.077l-.334-.335-.167-.3.251-.134.736.435.635.251-.184.134ZM6.755,69.01l-.117-.251-.134-.3.686-.017.268.318-.033.268Zm162.337-2.836.535-.518.652-.535.318-.134.033-.418L170.5,63.3l-.3-.485-.134-.385.151-.05.568,1.137.083.919-.033.7-.7.318-.585.5-.234.251Zm-2.924-12.782-.033-.368-.234-.518.384-.1.151.485s.15.568.15.635-.184.251-.184.251Zm13.473-18.963.473-.544h.331l.378.307-.5.213-.449.213Zm1.939-.166.449-.142.095-.355.213.024.213.473-.26.095-.8.024Zm-47.821-11.7-.134-.518-.2-.1.067-.234.335-.033.451-.05a3.017,3.017,0,0,0,.334.385c.067.033.084.334.084.334l-.268.251Zm48.294-1.6.318-.318.284.217.117.5-.351.184Zm1.756-.836-.368-.385.284-.468.418-.15.167.368-.184.167s-.05.351-.05.418c0,.045-.12.052-.2.052C183.838,20.134,183.808,20.132,183.808,20.132ZM115.8,15.4l.378-.426.449-.166,1.111-.8.473-.118.094.095-1.064,1.064-.686.4-.426.189ZM15.334,2.441a3.824,3.824,0,0,1,.3-.535l-.351-.117-.067.3-.151.134-.318-.468-.1-.518.418-.033.1.284.318-.335h.485l.167.318-.318.351.134.167-.151.418-.284.083s-.02,0-.048,0C15.415,2.493,15.334,2.485,15.334,2.441Z" transform="translate(0 0)"/></g></g></svg>