<?xml version="1.0" encoding="utf-8"?>
<!-- Generator: Adobe Illustrator 21.1.0, SVG Export Plug-In . SVG Version: 6.00 Build 0)  -->
<svg version="1.1" id="Layer_1" xmlns="http://www.w3.org/2000/svg" xmlns:xlink="http://www.w3.org/1999/xlink" x="0px" y="0px"
	 viewBox="0 0 693.7 471.5" style="enable-background:new 0 0 693.7 471.5;" xml:space="preserve">
<style type="text/css">
	.st0{fill:#CEA494;}
	.st1{fill:#CCEEFF;}
	.st2{fill:#D8AD98;}
	.st3{fill:#00426D;}
	.st4{fill:#685049;}
	.st5{fill:#755B58;}
	.st6{fill:#BBD9E8;}
</style>
<g id="Слой_1">
</g>
<g id="neck">
</g>
<g id="shirt">
</g>
<g id="face">
</g>
<g id="hair">
	<g>
		<path class="st0" d="M195.1,177.9c0,0,1.9,24.6-2.5,34s-7.6,14.5-7.6,14.5l7.4,50.4l48.5,99.9l23,12l25-56l15.4-62.6v-25.9
			l-4.9-26.5l-7.3-12.5L195.1,177.9z"/>
		<path class="st1" d="M192.6,226.9c0.1,10.3,4.7,33.9,11,38.4s39.7,51.8,45.2,70.8s8.5,26.7,8.5,26.7s11-63.7,27-88.7
			s14-23.4,15-37.5s-5.4-23.4-5.4-23.4s4-6.1,4.7-7.1c0.8-1,14.3,19.3,15.8,24.7c1.5,5.4,88.5,39.8,93.9,49.3s12.3,2.8,22,43.5
			s25.3,90,29.7,108.7c4.3,18.7,4.3,38.6,4.3,38.6H0c0,0,9.3-19.6,11-30.9s3-11,5-30s19.3-87.2,28.6-104.9s-2-12.8,16.3-21.9
			s81.4-41,95-49.1c26.3-15.8,39.1-38.3,39.3-37.4C196.8,204.5,192.4,218.2,192.6,226.9z"/>
		<path class="st2" d="M190.6,130.1l-10.3-19.7H174c0,0-3.7-0.4-6.2,1.8s-3.7,2.2-5.7,6.6s-2.7,11.2-0.7,16.2s6.3,14.8,10,20.9
			c3.5,5.8,7.2,8.5,12.4,8.5s6.6-1.8,6.6-1.8s1.3,18,3.5,21.8s39.8,46,62.3,45s24.5,0.8,30.8-6s6.3-10.8,10.8-16.3s8-12,10.8-24
			s4.5-41.5,3-54.5s-2.5-38-2.5-38l-5.3-32l-10-16l-9.5-4.8l-17.5,6l-41-3l-25-0.3l-13,17.5l3,28.3l-3,27L190.6,130.1z"/>
		<path class="st3" d="M192,135.9c3.7-7.2,3.7-18.4,2-23.5s-1.4-8.3,1-11.3s4.2-6.3,4.1-8.9s-7.4-24.1-5.1-29.6s1.5-13.5,12-14.1
			s22.2,8,30.2,8.1s16.6,1.6,21.5-1.8c4.9-3.4,18.8-12.8,27-9.3c8.2,3.5,14.6,10.8,16,17c1.3,6.2,5.5,31.5,6.2,35.5
			s3.1,10.1,3.1,10.1s1.3-23.3,2.2-29.8s2-2.2,0-11.7s-9.5-26-12.6-31c-3.2-5-12.5-12-11.8-15.7s-4.2-5.5-7.2-7.3s-3.8-4.5-10.5-7
			s-17.7-4-26-3.7s-12.2,1.1-19.5,0s-6.7-3.7-12.7,0s-14,6.4-15.5,10.2s-1.2,5-3.7,4.7s-7.8,0.7-8.8,3.8c-1,3.2-6.2,2.7-10,10.7
			S162,52.6,162.5,56.1s3.7,5.2,1.5,8.2c-2.2,3-3.7,6.8-1.5,12.2c2.2,5.3,8,37.3,8,37.3s6.3-0.5,9.3,1.9S190.5,138.8,192,135.9z"/>
	</g>
</g>
<g id="hair_2_">
	<g>
		<polyline class="st4" points="486.3,168.4 577.8,158.7 528.9,264 502.9,299.3 477.8,242.1 486.3,168.4 		"/>
		<path class="st5" d="M534,15.7l-35,9.5L477.8,71l-10.5,36.3l1.6,55.3l26.5,8.8c0,0,7.5,10.1,20,9.8c12.4-0.3,42.5-9.8,48.4-16.4
			c5.9-6.6,21.6-18,21.6-18l5.2-56.9L587.3,56l-24.9-25.2L534,15.7z"/>
		<path class="st6" d="M600.6,215.2c0,0,57.9,8.3,64.8,19.1c6.9,10.8,30.9,34.8,28,91.7c-2.9,56.9-7.4,146.9-7.4,146.9l-299.2-1.4
			c0,0,5.9-35.1,7.8-68.9c1.9-33.8,3.4-81,2-90.8c-1.4-9.8,40.2-85.4,40.2-85.4l23.1-20.6l21.9,2.7l0.2,36.1
			c0,0,14.9,40.9,20.6,44.2c0,0,43.7-38.8,50-55.4C558.9,216.7,600.6,215.2,600.6,215.2z"/>
		<path class="st3" d="M389.1,318.6c13,9.5,53.6,23.9,64.1,3.9s4.6-31.1,9.5-50.7s24.2-26.5,33.7-46.8s1.2-51.2,1.2-51.2
			s-14.6-11.6-15-26.6c-0.3-15-5.7-44.5-1.2-53s4-10.1,3.5-13.7s-1.8-4.9,1.1-9c2.9-4.1,9.8-44.5,27.1-44.3
			c17.3,0.2,15.2,3.3,17.5,3.1c2.3-0.2,3.1-6.2,11.9-3.1s21.4,11.9,24.2,24.2c2.8,12.3,0,12.9,5.6,19.1c5.6,6.2,9,29.6,6.2,36.5
			s-3.1,8.3-3.1,20.8s-10.2,35.5-10.2,35.5s3,8.2-4.5,18s-20,16.7-20.9,22.2c-1,5.6-3.9,2.3-9.2,21.9s-18.3,15.4-9.5,35.3
			c8.8,20,2.6,35.3,19,40.2c16.4,4.9,25.8,15.7,50.4,9.2c24.5-6.5,57.9-29.4,53.3-48.1c-4.6-18.6-11.8-31.1-11.8-48.7
			s7.9-82.8,0-96.2c-7.9-13.4-14.1-41.2-18.6-55.6s-23.6-52-38.3-52s-16.7,3.6-19.6,0c-2.9-3.6-11.1-12.1-31.4-8.2
			s-54,24.2-58.2,34.7c-4.2,10.5-4.9,23.9-7.5,34.7s-21.6,56.3-20.6,64.1c1,7.9,6.5,35-3.6,54s-37.6,38.3-37.6,55s3.6,19.6,1,34.3
			c-2.6,14.7-2.3,21.9-8.5,22.2c-6.2,0.3-18.6-2.6-18.6-2.6S383.5,314.5,389.1,318.6z"/>
	</g>
</g>
</svg>
